<svg width="120" height="120" viewBox="0 0 120 120" fill="none" xmlns="http://www.w3.org/2000/svg">
  <defs>
    <radialGradient id="glow" cx="50%" cy="50%" r="70%">
      <stop offset="0%" stop-color="#0EA5E9" stop-opacity="0.8"/>
      <stop offset="70%" stop-color="#06B6D4" stop-opacity="0.45"/>
      <stop offset="100%" stop-color="#0B0F14" stop-opacity="0"/>
    </radialGradient>
    <linearGradient id="ring" x1="0" y1="0" x2="120" y2="120" gradientUnits="userSpaceOnUse">
      <stop offset="0%" stop-color="#38BDF8"/>
      <stop offset="100%" stop-color="#06B6D4"/>
    </linearGradient>
  </defs>
  <rect width="120" height="120" rx="32" fill="#0B0F14"/>
  <circle cx="60" cy="60" r="46" fill="url(#glow)"/>
  <circle cx="60" cy="60" r="44" stroke="url(#ring)" stroke-width="4" fill="none" opacity="0.6"/>
  <path d="M38 80L48.5 47.5L60 62.8L71.5 47.5L82 80H72.3L65.3 60.6L60 67.8L54.7 60.6L47.7 80H38Z" fill="#F8FAFC"/>
  <path d="M85.5 46H95L85.4 60.5L95.8 80H85.9L79.5 67.2L73.1 80H63.4L73.8 60.5L64.2 46H74.7L79.5 54.8L84.3 46H85.5Z" fill="#06B6D4"/>
</svg>
