<svg width="320" height="96" viewBox="0 0 320 96" fill="none" xmlns="http://www.w3.org/2000/svg">
  <rect width="320" height="96" rx="24" fill="#0B0F14"/>
  <path d="M30 70L46 26H58L68 48.8L78 26H90L106 70H94.4L83.6 40.2L73.6 62.2L63.4 40.2L52.8 70H30Z" fill="#F8FAFC"/>
  <path d="M116.8 26H129.6L145 52.4L160.4 26H173.2L149.8 65.8V70H138.8V65.6L116.8 26Z" fill="#06B6D4"/>
  <path d="M188.6 26H201.6L212.6 42.8L223.8 26H236.6L218.6 53.6L236.6 70H223.6L212.4 55L201.4 70H188.4L206.6 52.4L188.6 26Z" fill="#F8FAFC"/>
  <path d="M246.2 26H259.2L270.2 42.8L281.4 26H294.2L276.2 53.6L294.2 70H281.2L270 55L259 70H246L264.2 52.4L246.2 26Z" fill="#06B6D4"/>
  <path d="M303 26H315.4L300.4 47.6L316.4 70H304L289.4 50.4V70H277.8V26H289.4V44.2L303 26Z" fill="#F8FAFC"/>
</svg>
